<mxfile host="app.diagrams.net" modified="2023-11-29T08:20:35.182Z" agent="Mozilla/5.0 (Windows NT 10.0; Win64; x64) AppleWebKit/537.36 (KHTML, like Gecko) Chrome/119.0.0.0 Safari/537.36" etag="AwDd7KCNBnKbkbljYvlo" version="22.1.4" type="device">
  <diagram name="페이지-1" id="W-AUWrDXs9lIPLHtlgtr">
    <mxGraphModel dx="1434" dy="750" grid="1" gridSize="10" guides="1" tooltips="1" connect="1" arrows="1" fold="1" page="1" pageScale="1" pageWidth="827" pageHeight="1169" math="0" shadow="0">
      <root>
        <mxCell id="0" />
        <mxCell id="1" parent="0" />
        <mxCell id="4WH5JzsIihOdMog20jXw-1" value="&lt;font style=&quot;border-color: var(--border-color); font-size: 18px;&quot;&gt;&lt;font style=&quot;border-color: var(--border-color); font-size: 18px;&quot;&gt;&lt;b style=&quot;font-size: 18px;&quot;&gt;&lt;font style=&quot;font-size: 18px;&quot;&gt;ImageDataGenerator&lt;/font&gt;&lt;/b&gt;&lt;br style=&quot;border-color: var(--border-color); font-size: 18px;&quot;&gt;&lt;/font&gt;&lt;br style=&quot;border-color: var(--border-color); font-size: 18px;&quot;&gt;&lt;/font&gt;zoom_range = 0.2,&lt;div style=&quot;font-size: 18px;&quot;&gt;&amp;nbsp; &amp;nbsp; horizontal_flip = True,&lt;/div&gt;&lt;div style=&quot;font-size: 18px;&quot;&gt;&amp;nbsp; &amp;nbsp; rescale = 1./255&lt;/div&gt;&lt;div style=&quot;font-size: 18px;&quot;&gt;batch_size = 16&lt;/div&gt;" style="rounded=0;whiteSpace=wrap;html=1;fontSize=18;" parent="1" vertex="1">
          <mxGeometry x="20" y="70" width="300" height="140" as="geometry" />
        </mxCell>
        <mxCell id="4WH5JzsIihOdMog20jXw-3" value="공통작업" style="rounded=0;whiteSpace=wrap;html=1;fontSize=19;fontStyle=1;fillColor=#cce5ff;strokeColor=#36393d;" parent="1" vertex="1">
          <mxGeometry x="20" y="20" width="300" height="30" as="geometry" />
        </mxCell>
        <mxCell id="4WH5JzsIihOdMog20jXw-13" value="" style="shape=flexArrow;endArrow=classic;html=1;rounded=0;width=22.142857142857146;endSize=15.142857142857144;fillColor=#dae8fc;strokeColor=#6c8ebf;" parent="1" edge="1">
          <mxGeometry width="50" height="50" relative="1" as="geometry">
            <mxPoint x="330" y="470" as="sourcePoint" />
            <mxPoint x="410" y="470" as="targetPoint" />
          </mxGeometry>
        </mxCell>
        <mxCell id="1WTBzV1dJ3ijmPRsGMLZ-4" value="&lt;font style=&quot;font-size: 19px;&quot;&gt;train_data : old(6310장) / young(14710장)&lt;br style=&quot;font-size: 19px;&quot;&gt;test_data : old(1440장) / young(3820장)&lt;br style=&quot;font-size: 19px;&quot;&gt;dropout: 3720 장&lt;br style=&quot;font-size: 19px;&quot;&gt;train: 60%, test: 20%, val: 20%&lt;br style=&quot;font-size: 19px;&quot;&gt;&lt;font style=&quot;font-size: 19px;&quot;&gt;열크기, 행크기, 채널수&amp;nbsp;(480,360,3)&lt;/font&gt;&lt;/font&gt;" style="rounded=0;whiteSpace=wrap;html=1;fontSize=19;fontStyle=1;" parent="1" vertex="1">
          <mxGeometry x="420" y="70" width="700" height="140" as="geometry" />
        </mxCell>
        <mxCell id="1WTBzV1dJ3ijmPRsGMLZ-14" value="&lt;font style=&quot;font-size: 17px;&quot;&gt;이미지 데이터 전처리&lt;br&gt;&lt;/font&gt;" style="rounded=0;whiteSpace=wrap;html=1;fontSize=15;fontStyle=1;verticalAlign=middle;fillColor=#cce5ff;strokeColor=#36393d;" parent="1" vertex="1">
          <mxGeometry x="420" y="20" width="700" height="30" as="geometry" />
        </mxCell>
        <mxCell id="1WTBzV1dJ3ijmPRsGMLZ-12" value="&lt;div style=&quot;line-height: 120%;&quot;&gt;&lt;b style=&quot;&quot;&gt;&lt;font style=&quot;font-size: 22px;&quot;&gt;ResNet-50&lt;/font&gt;&lt;/b&gt;&lt;/div&gt;&lt;div style=&quot;line-height: 120%; font-size: 20px;&quot;&gt;&lt;font style=&quot;font-size: 20px;&quot;&gt;weights=&#39;imagenet&#39;&lt;/font&gt;&lt;/div&gt;&lt;div style=&quot;line-height: 120%; font-size: 20px;&quot;&gt;&lt;font style=&quot;font-size: 20px;&quot;&gt;include_top=False,&lt;/font&gt;&lt;/div&gt;&lt;div style=&quot;line-height: 120%; font-size: 20px;&quot;&gt;&lt;font style=&quot;font-size: 20px;&quot;&gt;input_shape=(480, 360, 3)&lt;/font&gt;&lt;br style=&quot;font-size: 20px;&quot;&gt;&lt;/div&gt;&lt;div style=&quot;line-height: 120%; font-size: 20px;&quot;&gt;&lt;br style=&quot;font-size: 20px;&quot;&gt;&lt;/div&gt;&lt;div style=&quot;line-height: 120%;&quot;&gt;&lt;b style=&quot;&quot;&gt;&lt;font style=&quot;font-size: 22px;&quot;&gt;Add Layer&lt;/font&gt;&lt;/b&gt;&lt;/div&gt;&lt;div style=&quot;font-size: 20px; line-height: 120%;&quot;&gt;Dense(512, activation = &quot;relu&quot;)&lt;br style=&quot;border-color: var(--border-color); font-size: 20px;&quot;&gt;&lt;/div&gt;&lt;div style=&quot;font-size: 20px; line-height: 120%;&quot;&gt;&lt;br style=&quot;font-size: 20px;&quot;&gt;&lt;/div&gt;&lt;b style=&quot;border-color: var(--border-color);&quot;&gt;&lt;font style=&quot;border-color: var(--border-color); font-size: 22px;&quot;&gt;출력층&lt;/font&gt;&lt;/b&gt;&lt;div style=&quot;font-size: 20px; line-height: 120%;&quot;&gt;Dense(1, activation = &quot;sigmoid&quot;)&lt;br style=&quot;font-size: 20px;&quot;&gt;&lt;/div&gt;&lt;div style=&quot;font-size: 20px; line-height: 120%;&quot;&gt;&lt;br style=&quot;font-size: 20px;&quot;&gt;&lt;/div&gt;&lt;div style=&quot;line-height: 120%; font-size: 22px;&quot;&gt;&lt;b style=&quot;&quot;&gt;&lt;font style=&quot;font-size: 22px;&quot;&gt;가중치 &lt;/font&gt;&lt;font style=&quot;font-size: 22px;&quot;&gt;고정&lt;/font&gt;&lt;/b&gt;&lt;/div&gt;&lt;div style=&quot;line-height: 120%; font-size: 20px;&quot;&gt;&lt;font style=&quot;font-size: 20px;&quot;&gt;layer.trainable = False&lt;/font&gt;&lt;br style=&quot;font-size: 20px;&quot;&gt;&lt;/div&gt;" style="rounded=0;whiteSpace=wrap;html=1;fontSize=20;" parent="1" vertex="1">
          <mxGeometry x="820" y="300" width="300" height="360" as="geometry" />
        </mxCell>
        <mxCell id="1WTBzV1dJ3ijmPRsGMLZ-16" value="전이학습" style="rounded=0;whiteSpace=wrap;html=1;fontSize=19;fontStyle=1;fillColor=#cce5ff;strokeColor=#36393d;" parent="1" vertex="1">
          <mxGeometry x="420" y="250" width="700" height="30" as="geometry" />
        </mxCell>
        <mxCell id="1WTBzV1dJ3ijmPRsGMLZ-11" value="&lt;font style=&quot;&quot;&gt;&lt;font style=&quot;font-weight: bold; font-size: 22px;&quot;&gt;VGG16&lt;/font&gt;&lt;br style=&quot;font-size: 20px;&quot;&gt;include_top = False&lt;br style=&quot;font-size: 20px;&quot;&gt;weights = &quot;imagenet&quot;&lt;br style=&quot;font-size: 20px;&quot;&gt;input_shape = (480, 360, 3)&lt;br style=&quot;font-size: 20px;&quot;&gt;vgg16.trainable = False&lt;br style=&quot;font-size: 20px;&quot;&gt;&lt;br style=&quot;font-size: 20px;&quot;&gt;&lt;span style=&quot;border-color: var(--border-color);&quot;&gt;&lt;b style=&quot;&quot;&gt;&lt;font style=&quot;font-size: 22px;&quot;&gt;분류층&lt;/font&gt;&lt;/b&gt;&lt;/span&gt;&lt;/font&gt;&lt;font style=&quot;&quot;&gt;&lt;br style=&quot;font-size: 20px;&quot;&gt;Dense(64, activation = &quot;relu&quot;)&lt;br style=&quot;font-size: 20px;&quot;&gt;&lt;br style=&quot;font-size: 20px;&quot;&gt;&lt;b style=&quot;&quot;&gt;&lt;font style=&quot;font-size: 22px;&quot;&gt;출력층&amp;nbsp;&lt;/font&gt;&lt;/b&gt;&lt;br style=&quot;font-size: 20px;&quot;&gt;Dense(1, activation = &quot;sigmoid&quot;)&lt;br style=&quot;font-size: 20px;&quot;&gt;&lt;br style=&quot;font-size: 20px;&quot;&gt;&lt;/font&gt;&lt;b style=&quot;&quot;&gt;&lt;font style=&quot;font-size: 22px;&quot;&gt;conv 미세조정&lt;/font&gt;&lt;/b&gt;&lt;br style=&quot;font-size: 20px;&quot;&gt;vgg16.trainable = False" style="rounded=0;whiteSpace=wrap;html=1;fontSize=20;" parent="1" vertex="1">
          <mxGeometry x="420" y="300" width="300" height="360" as="geometry" />
        </mxCell>
        <mxCell id="4WH5JzsIihOdMog20jXw-14" value="" style="shape=flexArrow;endArrow=classic;html=1;rounded=0;width=22.142857142857146;endSize=15.142857142857144;fillColor=#dae8fc;strokeColor=#6c8ebf;" parent="1" edge="1">
          <mxGeometry width="50" height="50" relative="1" as="geometry">
            <mxPoint x="730" y="479.5" as="sourcePoint" />
            <mxPoint x="812.5" y="479.98" as="targetPoint" />
            <Array as="points">
              <mxPoint x="730.5" y="479.98" />
            </Array>
          </mxGeometry>
        </mxCell>
        <mxCell id="1WTBzV1dJ3ijmPRsGMLZ-1" value="CNN&amp;nbsp;" style="rounded=0;whiteSpace=wrap;html=1;fontSize=19;fontStyle=1;fillColor=#cce5ff;strokeColor=#36393d;" parent="1" vertex="1">
          <mxGeometry x="20" y="250" width="300" height="30" as="geometry" />
        </mxCell>
        <mxCell id="1WTBzV1dJ3ijmPRsGMLZ-5" value="&lt;font style=&quot;font-size: 22px;&quot;&gt;&lt;b style=&quot;&quot;&gt;&lt;font style=&quot;font-size: 22px;&quot;&gt;Conv2D&lt;/font&gt;&lt;/b&gt;&lt;br style=&quot;&quot;&gt;&lt;/font&gt;filters = 32 ,64 ,128&lt;br style=&quot;font-size: 20px;&quot;&gt;kernal_size = (3 , 3)&lt;br style=&quot;font-size: 20px;&quot;&gt;input_shape = (480, 360, 3)&lt;br style=&quot;font-size: 20px;&quot;&gt;padding = &quot;same&quot;&lt;br style=&quot;font-size: 20px;&quot;&gt;activation = &quot;relu&quot;&lt;br style=&quot;font-size: 20px;&quot;&gt;Dropout = 0.2&lt;br style=&quot;font-size: 20px;&quot;&gt;&lt;br style=&quot;font-size: 20px;&quot;&gt;&lt;b style=&quot;&quot;&gt;&lt;font style=&quot;font-size: 22px;&quot;&gt;중간층&amp;nbsp;&lt;/font&gt;&lt;/b&gt;&lt;br style=&quot;font-size: 20px;&quot;&gt;Dense(512, activation = &quot;relu&quot;)&lt;br style=&quot;font-size: 20px;&quot;&gt;&lt;br style=&quot;font-size: 20px;&quot;&gt;&lt;b style=&quot;&quot;&gt;&lt;font style=&quot;font-size: 22px;&quot;&gt;출력층&lt;/font&gt;&lt;/b&gt;&lt;br style=&quot;font-size: 20px;&quot;&gt;activation = &quot;Sigmoid&quot;&lt;br style=&quot;font-size: 20px;&quot;&gt;Dropout = 0.2" style="rounded=0;whiteSpace=wrap;html=1;fontSize=20;" parent="1" vertex="1">
          <mxGeometry x="20" y="300" width="300" height="360" as="geometry" />
        </mxCell>
      </root>
    </mxGraphModel>
  </diagram>
</mxfile>
